# xmcd
#
# Track frame offsets: 
#        150
#        21145
#        44003
#        62091
#        82474
#        97741
#        126498
#        157088
#
# Disc length: 3142 seconds
#
# Revision: 1
# Processed by: cddbd v1.5.2PL0 Copyright (c) Steve Scherf et al.
# Submitted via: ExactAudioCopy v1.0b3
#
DISCID=6f0c4408
DTITLE=Phil Guy and His Chicago Blues Band - - A Dose Of Double Dynamite
DYEAR=2006
DGENRE=Blues
TTITLE0=Shake'em On Dowm
TTITLE1=Louise
TTITLE2=My Babe
TTITLE3=Waves Of The Water
TTITLE4=Kohomo
TTITLE5=Call The Plumber
TTITLE6=Howlin' For My Darlin'
TTITLE7=Garbage Man Blues, Miss You
EXTD=
EXTT0=
EXTT1=
EXTT2=
EXTT3=
EXTT4=
EXTT5=
EXTT6=
EXTT7=
PLAYORDER=
